<svg width="48" height="48" viewBox="0 0 48 48" fill="none" xmlns="http://www.w3.org/2000/svg">
<rect width="48" height="48" rx="10" fill="#F8F8F8"/>
<g clip-path="url(#clip0_1_2705)">
<path d="M31.8089 24.1502C31.8089 23.4942 31.7556 23.016 31.6409 22.52H24.1565V25.4782H28.5494C28.4605 26.2142 27.9823 27.3209 26.9192 28.0649L26.9049 28.1645L29.2712 29.9982L29.4356 30.0142C30.9414 28.6231 31.8089 26.5769 31.8089 24.1502Z" fill="#4285F4"/>
<path d="M24.1556 31.9449C26.3085 31.9449 28.1156 31.2364 29.4356 30.0142L26.92 28.0649C26.2463 28.5342 25.3431 28.8622 24.1556 28.8622C22.0471 28.8622 20.2578 27.472 19.6205 25.5493L19.5271 25.5582L17.0658 27.4622L17.0338 27.5511C18.3449 30.1555 21.0374 31.9449 24.1556 31.9449Z" fill="#34A853"/>
<path d="M19.6204 25.5492C19.4515 25.0532 19.3538 24.5217 19.3538 23.9724C19.3538 23.423 19.4515 22.8915 19.6115 22.3955L19.6071 22.2897L17.1147 20.3555L17.0338 20.3946C16.4933 21.4746 16.1831 22.6879 16.1831 23.9724C16.1831 25.2568 16.4933 26.4701 17.0338 27.551L19.6204 25.5492Z" fill="#FBBC05"/>
<path d="M24.1556 19.0827C25.6525 19.0827 26.6623 19.7298 27.2383 20.2693L29.488 18.0729C28.1067 16.7884 26.3094 16 24.1556 16C21.0374 16 18.3449 17.7893 17.0338 20.3938L19.6116 22.3956C20.2578 20.4738 22.0471 19.0827 24.1556 19.0827Z" fill="#EB4335"/>
</g>
<defs>
<clipPath id="clip0_1_2705">
<rect width="16" height="16" fill="white" transform="translate(16 16)"/>
</clipPath>
</defs>
</svg>
